<svg xmlns="http://www.w3.org/2000/svg" xmlns:xlink="http://www.w3.org/1999/xlink" width="512" height="512" x="0" y="0" viewBox="0 0 512 512" style="enable-background:new 0 0 512 512" xml:space="preserve"><g><path d="M248.502 217.978v16.564a7.498 7.498 0 0 0 14.996 0v-16.564c37.892-3.56 68.132-33.801 71.693-71.693h16.536a7.498 7.498 0 0 0 0-14.996H335.19c-3.56-37.892-33.801-68.133-71.693-71.693V43.062a7.498 7.498 0 0 0-14.996 0v16.535c-37.892 3.56-68.132 33.801-71.693 71.693h-16.536a7.498 7.498 0 0 0 0 14.996h16.536c3.562 37.891 33.802 68.132 71.694 71.692zm0-143.3v15.751a7.498 7.498 0 0 0 14.996 0V74.678c29.615 3.443 53.169 26.997 56.612 56.611h-15.751a7.498 7.498 0 0 0 0 14.996h15.751c-3.443 29.615-26.997 53.168-56.612 56.611v-15.75a7.498 7.498 0 0 0-14.996 0v15.75c-29.615-3.443-53.169-26.997-56.612-56.611h15.751a7.498 7.498 0 0 0 0-14.996H191.89c3.443-29.614 26.998-53.168 56.612-56.611zM256 163.549c13.653 0 24.761-11.108 24.761-24.762S269.653 114.026 256 114.026s-24.761 11.107-24.761 24.761 11.108 24.762 24.761 24.762zm0-34.527c5.385 0 9.766 4.38 9.766 9.765s-4.381 9.766-9.766 9.766-9.766-4.381-9.766-9.766 4.381-9.765 9.766-9.765zm234.619 232.331a86.01 86.01 0 0 0-35.021-24.687c11.688-11.261 18.967-26.979 18.967-44.354 0-34.176-28.096-61.979-62.631-61.979-34.551 0-62.66 27.804-62.66 61.979 0 17.377 7.284 33.097 18.98 44.358-17.101 6.486-31.879 18.406-41.874 33.933a98.455 98.455 0 0 0-22.807-11.311c12.738-12.276 20.671-29.412 20.671-48.356 0-16.942-6.356-32.433-16.814-44.299 23.011-9.308 43.49-24.899 58.54-44.812 18.192-24.069 27.808-52.783 27.808-83.037C393.778 62.816 331.971 1.009 256 1.009c-75.987 0-137.806 61.808-137.806 137.778 0 30.252 9.621 58.966 27.823 83.038 15.052 19.908 35.531 35.496 58.538 44.805-10.466 11.867-16.827 27.361-16.827 44.306 0 18.946 7.939 36.084 20.685 48.361a98.48 98.48 0 0 0-22.793 11.306c-9.995-15.527-24.773-27.447-41.874-33.933 11.696-11.261 18.98-26.98 18.98-44.358 0-34.176-28.109-61.979-62.66-61.979-34.535 0-62.631 27.804-62.631 61.979 0 17.375 7.278 33.092 18.965 44.352a85.965 85.965 0 0 0-35.03 24.69C8.24 376.79 1.009 396.404 1.009 416.583v43.88a7.498 7.498 0 0 0 7.498 7.498H141.75v35.532a7.498 7.498 0 0 0 7.498 7.498h213.506a7.498 7.498 0 0 0 7.498-7.498v-35.532h133.243a7.498 7.498 0 0 0 7.498-7.498v-43.88c-.002-20.175-7.237-39.79-20.374-55.23zm-126.35-69.041c0-25.907 21.382-46.983 47.665-46.983 26.267 0 47.636 21.076 47.636 46.983 0 25.892-21.37 46.956-47.636 46.956-26.283 0-47.665-21.065-47.665-46.956zm-231.08-153.525c0-67.702 55.093-122.782 122.811-122.782 67.703 0 122.783 55.08 122.783 122.782 0 52.666-34.408 100.072-84.1 116.575a68.363 68.363 0 0 0-38.682-11.934c-14.358 0-27.687 4.415-38.693 11.931-49.704-16.511-84.119-63.915-84.119-116.572zm69.534 172.149c0-28.955 23.9-52.512 53.277-52.512 29.362 0 53.249 23.557 53.249 52.512 0 28.971-23.887 52.54-53.249 52.54-29.377 0-53.277-23.57-53.277-52.54zM52.43 292.312c0-25.907 21.37-46.983 47.636-46.983 26.283 0 47.665 21.076 47.665 46.983 0 25.892-21.382 46.956-47.665 46.956-26.267 0-47.636-21.065-47.636-46.956zM16.004 452.965v-36.382a70.261 70.261 0 0 1 55.998-68.912 62.775 62.775 0 0 0 28.063 6.592 62.832 62.832 0 0 0 28.08-6.594c18.884 3.979 35.474 15.753 45.621 32.24a99.399 99.399 0 0 0-8.313 8.566c-15.286 17.824-23.704 40.5-23.704 63.852v.638zm339.251 43.03h-198.51v-43.668c0-39.443 28.759-74.13 67.29-81.74A68.42 68.42 0 0 0 256 378.471a68.376 68.376 0 0 0 31.956-7.886c38.536 7.605 67.3 42.295 67.3 81.741v43.669zm140.741-43.03H370.25v-.638c0-23.352-8.418-46.027-23.704-63.852a99.399 99.399 0 0 0-8.313-8.566c10.147-16.487 26.737-28.262 45.621-32.24a62.829 62.829 0 0 0 28.08 6.594 62.784 62.784 0 0 0 28.062-6.592 70.267 70.267 0 0 1 55.999 68.911v36.383z" fill="#f15a26" opacity="1" data-original="#000000"></path></g></svg>