<svg xmlns="http://www.w3.org/2000/svg" xmlns:xlink="http://www.w3.org/1999/xlink" width="512" height="512" x="0" y="0" viewBox="0 0 64 64" style="enable-background:new 0 0 512 512" xml:space="preserve" class=""><g><g data-name="Filled outline"><path fill="#f15a26" d="m20 3-6 6v12h10v-8h12v9L14 43v14h32V47H25l21-21V9l-6-6z" opacity="1" data-original="#98ecb7" class=""></path><path fill="#f15a26" d="m14 57 4 4h32l-4-4z" opacity="1" data-original="#4c9e65" class=""></path><path fill="#f15a26" d="m46 47 4 4v10l-4-4z" opacity="1" data-original="#67c086" class=""></path><path fill="#f15a26" d="m14 21 4 4h10l-4-4z" opacity="1" data-original="#98ecb7" class=""></path><path fill="#f15a26" d="M28 25v-8l-4-4v8z" opacity="1" data-original="#67c086" class=""></path><path fill="#f15a26" d="M36 17h-8l-4-4h12z" opacity="1" data-original="#4c9e65" class=""></path><path fill="#f15a26" d="m46 9 4 4v17l-4-4z" opacity="1" data-original="#67c086" class=""></path><path fill="#f15a26" d="M50 30 33 47h-8l21-21z" opacity="1" data-original="#4c9e65" class=""></path><path d="M40.707 2.293A1 1 0 0 0 40 2H20a1 1 0 0 0-.707.293l-6 6A1 1 0 0 0 13 9v12a1 1 0 0 0 .293.707l4 4A1 1 0 0 0 18 26h10a1 1 0 0 0 1-1v-7h6v3.572L13.31 42.277A1 1 0 0 0 13 43v14a1 1 0 0 0 .293.707l4 4A1 1 0 0 0 18 62h32a1 1 0 0 0 .924-.617A1.843 1.843 0 0 0 51 61V51a1 1 0 0 0-.293-.707l-4-4A1 1 0 0 0 46 46H35.414L50.7 30.7a1 1 0 0 0 .3-.7V13a1 1 0 0 0-.293-.707zM18.414 24l-2-2h7.172l2 2zM27 22.586l-2-2v-5.172l2 2zM28.414 16l-2-2H35v2zM47 49.414l2 2v7.172l-2-2zM47.586 60H18.414l-2-2h29.172zM45 48v8H15V43.428l21.69-20.7A1 1 0 0 0 37 22v-9a1 1 0 0 0-1-1H24a1 1 0 0 0-1 1v7h-8V9.414L20.414 4h19.172L45 9.414v16.172L24.293 46.293A1 1 0 0 0 25 48zm-12.414-2h-5.172L46 27.414 48.586 30zM49 27.586l-2-2V11.414l2 2z" fill="#000000" opacity="1" data-original="#000000" class=""></path></g></g></svg>