<svg xmlns="http://www.w3.org/2000/svg" width="140" height="140" viewBox="0 0 140 140" fill="none"><path fill-rule="evenodd" clip-rule="evenodd" d="M69.9996 48.8761C74.3552 48.8761 77.885 52.4059 77.885 56.7617C77.885 61.1171 74.3552 64.6477 69.9996 64.6477C65.644 64.6477 62.1139 61.1171 62.1139 56.7617C62.1139 52.4059 65.644 48.8761 69.9996 48.8761ZM50.3312 56.7617V58.1754L55.7718 58.9853C55.9246 60.0167 56.1995 61.0025 56.5588 61.9502L52.2568 65.3734L53.6704 67.819L58.79 65.8087C59.4318 66.6033 60.1577 67.3293 60.96 67.9713L58.9429 73.0911L61.3879 74.5045L64.8111 70.2026C65.7586 70.5698 66.7443 70.8369 67.7757 70.9972L68.5933 76.4301H71.4127L72.2303 70.9972C73.2543 70.8369 74.2477 70.5698 75.1872 70.2026L78.6183 74.5045L81.0557 73.0911L79.0462 67.9713C79.8406 67.329 80.5668 66.6033 81.2083 65.8087L86.3282 67.819L87.7416 65.3734L83.4398 61.9502C83.8065 61.0025 84.0739 60.017 84.2345 58.9853L89.6748 58.168V56.7617V55.3483L84.2345 54.5308C84.0739 53.5067 83.8065 52.5133 83.4398 51.5738L87.7416 48.1427L86.3282 45.7053L81.2083 47.7148C80.5666 46.9202 79.8406 46.1939 79.0462 45.5527L81.0557 40.4331L78.6183 39.0195L75.1872 43.3209C74.2474 42.9542 73.2543 42.6874 72.2303 42.5266L71.4127 37.0863H68.5933L67.7757 42.5266C66.7443 42.6874 65.7586 42.9542 64.8111 43.3209L61.3879 39.0195L58.9429 40.4331L60.96 45.5527C60.1577 46.1942 59.4318 46.9202 58.79 47.7148L53.6704 45.7053L52.2568 48.1427L56.5588 51.5738C56.1997 52.5136 55.9246 53.5067 55.7718 54.5308L50.3312 55.3483V56.7617ZM110.987 32.3255C111.43 32.066 112.003 32.2185 112.263 32.6618C112.522 33.1121 112.37 33.6855 111.919 33.945L103.567 38.7668C103.116 39.0269 102.543 38.874 102.284 38.4308C102.024 37.9801 102.177 37.4067 102.628 37.147L110.987 32.3255ZM117.978 56.5479C118.498 56.5479 118.918 56.9682 118.918 57.488C118.918 58.0078 118.498 58.4278 117.978 58.4278H108.327C107.808 58.4278 107.387 58.0078 107.387 57.488C107.387 56.9682 107.808 56.5479 108.327 56.5479H117.978ZM45.5709 15.7746C45.3112 15.3242 45.464 14.7505 45.9073 14.491C46.3579 14.231 46.9313 14.3841 47.1911 14.8347L52.0123 23.1945C52.2721 23.6372 52.1195 24.2109 51.6763 24.4704C51.2256 24.7304 50.6522 24.5773 50.3925 24.1262L45.5709 15.7746ZM28.0802 33.9453C27.6296 33.6858 27.4765 33.1124 27.7365 32.6621C27.9963 32.2188 28.5694 32.066 29.0203 32.3257L37.3719 37.1472C37.8225 37.407 37.9757 37.9804 37.7156 38.431C37.4559 38.8743 36.883 39.0274 36.4395 38.7671L28.0802 33.9453ZM22.0211 58.4275C21.5016 58.4275 21.0811 58.0075 21.0811 57.4877C21.0811 56.9679 21.5013 56.5476 22.0211 56.5476H31.6718C32.1914 56.5476 32.6116 56.9679 32.6116 57.4877C32.6116 58.0075 32.1914 58.4275 31.6718 58.4275H22.0211ZM68.3871 8.03436C68.3948 7.52221 68.815 7.10986 69.3348 7.10986C69.8467 7.11725 70.2593 7.54545 70.2593 8.05732L70.1448 16.279C70.1371 16.7986 69.7168 17.2112 69.1973 17.2035C68.6854 17.2035 68.2652 16.7756 68.2728 16.2563L68.3871 8.03436ZM44.8679 128.878C44.3484 128.878 43.9281 128.459 43.9281 127.939C43.9281 127.419 44.3484 126.999 44.8679 126.999H79.23C79.7419 126.999 80.1701 127.419 80.1701 127.939C80.1701 128.459 79.7421 128.878 79.23 128.878H44.8679ZM62.8932 132.89C62.3737 132.89 61.9534 132.47 61.9534 131.958C61.9534 131.438 62.3734 131.018 62.8932 131.018H90.1645C90.684 131.018 91.1043 131.438 91.1043 131.958C91.1043 132.47 90.6843 132.89 90.1645 132.89H62.8932ZM92.9533 132.89C92.4338 132.89 92.0135 132.47 92.0135 131.958C92.0135 131.438 92.4335 131.018 92.9533 131.018H96.3688C96.8807 131.018 97.3009 131.438 97.3009 131.958C97.3009 132.47 96.8807 132.89 96.3688 132.89H92.9533ZM38.2661 132.722C37.7465 132.722 37.326 132.302 37.326 131.782C37.326 131.263 37.7463 130.842 38.2661 130.842H51.1871C51.7066 130.842 52.1271 131.263 52.1271 131.782C52.1271 132.302 51.7069 132.722 51.1871 132.722H38.2661ZM49.2156 94.9599C49.5746 94.9599 49.9416 94.7228 50.0638 94.4324C50.3771 93.798 49.8959 93.08 49.2156 93.08H47.336C46.9843 93.08 46.6177 93.3094 46.4954 93.6074C46.1821 94.2339 46.6636 94.9599 47.336 94.9599H49.2156ZM90.6991 94.9599C91.051 94.9599 91.425 94.7228 91.5396 94.4324C91.853 93.798 91.3794 93.08 90.6991 93.08H88.8197C88.4681 93.08 88.0935 93.3094 87.9792 93.6074C87.6658 94.2339 88.1397 94.9599 88.8197 94.9599H90.6991ZM98.2107 94.9599C98.562 94.9599 98.9364 94.7228 99.0512 94.4324C99.3646 93.798 98.8904 93.08 98.2107 93.08H96.3308C95.9794 93.08 95.6051 93.3094 95.4905 93.6074C95.1771 94.2339 95.6507 94.9599 96.3308 94.9599H98.2107ZM39.8323 93.08C39.4733 93.08 39.1063 93.3094 38.9841 93.6074C38.671 94.2339 39.1523 94.9599 39.8323 94.9599H41.7043C42.0633 94.9599 42.4302 94.7228 42.5527 94.4324C42.8658 93.798 42.3846 93.08 41.7043 93.08H39.8323ZM49.2156 90.169C49.5746 90.169 49.9416 89.9395 50.0638 89.6415C50.3771 89.0151 49.8959 88.2891 49.2156 88.2891H47.336C46.9843 88.2891 46.6177 88.5185 46.4954 88.8165C46.1821 89.443 46.6636 90.169 47.336 90.169H49.2156ZM90.6991 90.169C91.051 90.169 91.425 89.9395 91.5396 89.6415C91.853 89.0151 91.3794 88.2891 90.6991 88.2891H88.8197C88.4681 88.2891 88.0935 88.5185 87.9792 88.8165C87.6658 89.443 88.1397 90.169 88.8197 90.169H90.6991ZM98.2107 90.169C98.562 90.169 98.9364 89.9395 99.0512 89.6415C99.3646 89.0151 98.8904 88.2891 98.2107 88.2891H96.3308C95.9794 88.2891 95.6051 88.5185 95.4905 88.8165C95.1771 89.443 95.6507 90.169 96.3308 90.169H98.2107ZM39.8323 88.2891C39.4733 88.2891 39.1063 88.5185 38.9841 88.8165C38.671 89.443 39.1523 90.169 39.8323 90.169H41.7043C42.0633 90.169 42.4302 89.9395 42.5527 89.6415C42.8658 89.0151 42.3846 88.2891 41.7043 88.2891H39.8323ZM92.8081 14.8347C93.0681 14.3844 93.6413 14.231 94.0919 14.491C94.5351 14.7505 94.688 15.3242 94.4359 15.7746L89.6067 24.1262C89.3469 24.5771 88.7738 24.7304 88.3306 24.4704C87.8799 24.2109 87.7271 23.6372 87.9868 23.1945L92.8081 14.8347ZM56.2763 104.565H83.7308V111.113H56.2763V104.565ZM58.8742 117.654H81.1252V112.993H58.8742V117.654ZM76.6474 119.533V124.202H63.3518V119.533H76.6474ZM69.9996 26.4187C87.123 26.4187 101.007 40.3024 101.007 57.4262C101.007 68.0473 95.6661 77.4229 87.5206 83.009L81.7667 102.074C81.7057 102.272 81.6674 102.479 81.6368 102.685H58.3621C58.3391 102.479 58.3008 102.272 58.2396 102.074L52.4782 83.009C44.3405 77.4229 38.9915 68.0473 38.9915 57.4262C38.9918 40.3027 52.8755 26.4187 69.9996 26.4187Z" fill="#F15A26" stroke="white" stroke-width="0.40625"></path></svg>