<svg xmlns="http://www.w3.org/2000/svg" xmlns:xlink="http://www.w3.org/1999/xlink" width="512" height="512" x="0" y="0" viewBox="0 0 480 480" style="enable-background:new 0 0 512 512" xml:space="preserve" class=""><g><g data-name="Layer 2"><g data-name="07.number_6"><rect width="480" height="480" fill="#f15a26" rx="240" opacity="1" data-original="#d50000" class=""></rect><path fill="#ffffff" d="M318 273c0 43.5-31.8 74.1-78 74.1-46.5 0-78-30.6-78-74.1 0-16.2 4.5-30.9 12.3-42.6l64.2-97.5h55.2l-45.6 66.3c41.7 3.3 69.9 33 69.9 73.8zm-48 0c0-18.3-14.1-29.1-30-29.1-16.2 0-30 10.5-30 29.1s13.8 29.1 30 29.1c15.9 0 30-10.8 30-29.1z" opacity="1" data-original="#ffffff"></path></g></g></g></svg>